<svg xmlns="http://www.w3.org/2000/svg" xmlns:xlink="http://www.w3.org/1999/xlink" viewBox="0 0 214 124"><defs><style>.cls-1{fill:#fff;opacity:0;}.cls-2{fill:url(#未命名的渐变_465);}.cls-3{fill:url(#未命名的渐变_465-2);}.cls-4{fill:url(#未命名的渐变_453);}.cls-5{fill:url(#未命名的渐变_7);}</style><linearGradient id="未命名的渐变_465" x1="186.81" y1="40.64" x2="115.03" y2="-0.81" gradientUnits="userSpaceOnUse"><stop offset="0" stop-color="#ff9a44"/><stop offset="1" stop-color="#fff" stop-opacity="0"/></linearGradient><linearGradient id="未命名的渐变_465-2" x1="24.6" y1="106.79" x2="74.11" y2="57.28" xlink:href="#未命名的渐变_465"/><linearGradient id="未命名的渐变_453" x1="24.98" y1="37.31" x2="175.9" y2="37.31" gradientUnits="userSpaceOnUse"><stop offset="0" stop-color="#fe5858"/><stop offset="1" stop-color="#ff9a44"/></linearGradient><linearGradient id="未命名的渐变_7" x1="212" y1="67.84" x2="36.17" y2="67.84" xlink:href="#未命名的渐变_453"/></defs><g id="图层_2" data-name="图层 2"><g id="图层_4" data-name="图层 4"><rect class="cls-1" width="214" height="124"/><path class="cls-2" d="M175.89,59.44c6.22-9.68,8.92-21.43,8.92-34.11a51.7,51.7,0,0,0-1.33-11.65h0A77.61,77.61,0,0,0,142,2a79.19,79.19,0,0,0-32.57,6.89A141.7,141.7,0,0,1,175.89,59.44Z"/><path class="cls-3" d="M36.17,72.61c-10-15.08-16.29-48.31-5.67-58.93C13.21,24.6,2,42.18,2,62c0,33.14,31.34,60,70,60,11.77,0,22.86-1.22,32.6-5.63C63.7,104.91,47.34,89.42,36.17,72.61Z"/><path class="cls-4" d="M36.17,72.61C47.49,52.53,71.48,38.67,99.25,38.67c42.75,0,65.05,13.47,76.65,20.78C148.12,21,106,2,72,2A77.64,77.64,0,0,0,30.49,13.69C19.89,24.32,26.15,57.53,36.17,72.61Z"/><path class="cls-5" d="M183.48,13.68a51.7,51.7,0,0,1,1.33,11.65c0,33.14-18.48,60-69.84,60-43,0-67.16-5.28-78.8-12.72,11.17,16.81,27.52,32.3,68.41,43.76q2.42.63,4.8,1.2c12,2.85,23.44,4.43,32.62,4.43,38.66,0,70-26.86,70-60C212,42.17,200.78,24.6,183.48,13.68Z"/></g></g></svg>