<svg xmlns="http://www.w3.org/2000/svg" xmlns:xlink="http://www.w3.org/1999/xlink" viewBox="0 0 840 124"><defs><style>.cls-1,.cls-3{fill:#fff;}.cls-1{opacity:0;}.cls-2{fill:url(#未命名的渐变_4);}.cls-4{fill:url(#未命名的渐变_4-2);}</style><linearGradient id="未命名的渐变_4" x1="21.41" y1="105.51" x2="61.35" y2="65.57" gradientUnits="userSpaceOnUse"><stop offset="0" stop-color="#fff"/><stop offset="1" stop-color="#fff" stop-opacity="0"/></linearGradient><linearGradient id="未命名的渐变_4-2" x1="188.23" y1="37.49" x2="122.85" y2="-0.25" xlink:href="#未命名的渐变_4"/></defs><g id="图层_2" data-name="图层 2"><g id="图层_4" data-name="图层 4"><rect class="cls-1" width="840" height="124"/><path class="cls-2" d="M70.26,122a98.23,98.23,0,0,0,23.23-2.32C55.35,107.23,40.28,91.11,29.85,75.41c-5.54-8.32-10-21.4-11.65-34.13a65.76,65.76,0,0,1,.05-18.82A60.78,60.78,0,0,0,7.83,35.28,52,52,0,0,0,.17,62.4C.17,95.26,31.61,122,70.26,122Z"/><path class="cls-3" d="M206.17,35.28a62.14,62.14,0,0,0-14.32-16.2q.21,2.42.21,4.83c0,24.78-10,66.36-76.7,66.36-31.81,0-55.91-2.72-71.94-8.11,10.89,12.43,28,24.52,61.93,34.05,1.66.43,3.32.85,4.93,1.23,12.35,2.94,24.23,4.56,33.46,4.56,38.65,0,70.1-26.74,70.1-59.6A51.89,51.89,0,0,0,206.17,35.28Z"/><path class="cls-3" d="M165.39,47.2a146.6,146.6,0,0,0-39.72-30.59C107.66,7.19,88,2,70.26,2A77.9,77.9,0,0,0,28.84,13.53c-4,4.35-5.49,14.06-3.93,26.1a86.8,86.8,0,0,0,7.86,26.55C46.58,46,71.36,33.73,98.87,33.73,130.31,33.73,151.43,40.53,165.39,47.2Z"/><path class="cls-4" d="M184.29,13.79a78.12,78.12,0,0,0-40.55-11,81.38,81.38,0,0,0-24.9,3.89,153.43,153.43,0,0,1,60.1,46.88c4.23-8.33,6.36-18.28,6.36-29.66A51.69,51.69,0,0,0,184.29,13.79Z"/><path class="cls-3" d="M250.17,26.25h44.72v10.6H262.81v19h29v10.6h-29V96.07H250.17Z"/><path class="cls-3" d="M334.68,43.71H347V96.07h-9a3,3,0,0,1-3-3V90.76s-4,6-15.3,6c-10.29,0-18.45-7.13-18.45-19.71V43.71h12.34V75.14c0,6.64,4,10.84,9.89,10.84C329,86,334.68,82,334.68,74Z"/><path class="cls-3" d="M806.46,96.07H794.12V43.71h9a3,3,0,0,1,3,3V49s4-6,15.29-6c10.3,0,18.45,7.13,18.45,19.71V96.07H827.49V64.64c0-6.65-4-10.84-9.88-10.84-5.46,0-11.15,4-11.15,11.93Z"/><path class="cls-3" d="M424.57,43.71h12.34V96.07h-9a3,3,0,0,1-3-3V90.76s-4,6-15.3,6c-10.29,0-18.45-7.13-18.45-19.71V43.71h12.34V75.14c0,6.64,3.95,10.84,9.89,10.84,5.45,0,11.14-4,11.14-11.94Z"/><path class="cls-3" d="M383.72,53.25H373.39V80.32c0,5,2.49,6.06,5.59,6.06.37,0,.74,0,1.08,0a3,3,0,0,1,3.14,2.36l1.47,6.85a24.34,24.34,0,0,1-7.26,1.23c-9.27.27-16.43-4.57-16.36-14.42V53.25h-7.43V43.71h7.43V31.16h12.34V43.71h10.33Z"/><path class="cls-3" d="M448.1,43.71h9a3,3,0,0,1,3,3v1.72s4-5.47,13.47-5.47a29,29,0,0,1,4.43.34v7.77a3,3,0,0,1-3.28,3c-.82-.08-1.67-.14-2.45-.14-6.78,0-11.79,4.71-11.79,11.35V96.07H448.1Z"/><path class="cls-3" d="M588.69,61.16c0-22.57,13.73-35.86,32-35.86,15.48,0,27.41,9,29.56,24.51H637.47c-1.47-8.35-8.12-13.16-16.6-13.16s-15.23,4.93-18,14A14.58,14.58,0,0,1,589,61.16Z"/><path class="cls-3" d="M672.05,96.07H659.71V26.25h12.07V48.6S675.78,43,687,43c10.88,0,19,7.06,19,19.71V96.07H693.67V64.64c0-7.06-3.82-11.18-10.3-11.18s-11.32,4.36-11.32,11.93Z"/><path class="cls-3" d="M769.4,29.59a7.16,7.16,0,0,1,14.29,0,7.16,7.16,0,0,1-14.29,0Zm1,14.12H782.7V96.07H770.36Z"/><path class="cls-3" d="M506.61,43c-15,0-24.78,11-24.78,27.17,0,16.43,9.65,26.9,25.43,26.9,12.21,0,20.59-6,22.77-15.07H517.9c-1.94,3.58-5.7,5.46-10.47,5.46-8,0-13.26-5.25-13.36-14.22h36.47V69.48C530.54,51.1,519.5,43,506.61,43ZM494.1,64.94c.38-6.68,5.32-12.3,12.68-12.3,7.09,0,11.87,5.18,11.94,12.3Z"/><path class="cls-3" d="M566.72,66.2l-8.93-1.91c-5.32-1.19-7.43-3-7.4-6.06,0-3.55,3.89-6,9-6s7.92,2.4,9.21,5.32h11.68C578.62,48.68,571.53,43,559.26,43c-12.62,0-21.21,6.21-21.17,15.89,0,7.63,4.67,12.68,14.72,14.76l8.94,1.87c4.8,1.06,7,3,7,6,0,3.58-3.88,6.27-9.75,6.27-5.17,0-8.68-2-10.06-6H536.62c1.54,9.62,9.62,15.31,22.47,15.31,13.09,0,22.32-6.79,22.36-16.71C581.41,72.92,576.61,68.35,566.72,66.2Z"/><path class="cls-3" d="M738.18,43c-11,0-19.46,4.91-22.19,14.46h12.27c1.64-2.83,4.9-5,10-5,5.72,0,8.86,2.93,8.86,8.08v.2c0,3.54-3.72,3.72-13,4.7-10.16,1.09-19.88,4.13-19.88,15.92,0,10.3,7.54,15.75,17.52,15.75,11.79,0,15.79-5.25,15.79-5.25v1.2a3,3,0,0,0,3,3h8.86V61C759.45,47.18,748.17,43,738.18,43Zm9,34.26c0,5.83-4.7,10.77-12.13,10.77-5.15,0-8.83-2.35-8.83-6.88,0-4.74,4.12-6.72,9.65-7.5,3.24-.44,9.71-1.26,11.31-2.56Z"/><path class="cls-3" d="M637.47,72.89c-1.6,8.18-8.29,12.78-16.64,12.78-10.86,0-18.75-7.84-19.37-22.65h0a10.59,10.59,0,0,0-10,14.28C596.36,89.91,607.22,97,620.66,97c16.6,0,27.61-10.74,29.56-24.07Z"/></g></g></svg>