<svg xmlns="http://www.w3.org/2000/svg" xmlns:xlink="http://www.w3.org/1999/xlink" width="214" height="160" viewBox="0 0 214 160">
  <defs>
    <linearGradient id="linear-gradient" x1="1.027" y1="0.673" x2="0.074" y2="-0.049" gradientUnits="objectBoundingBox">
      <stop offset="0" stop-color="#ff9a44"/>
      <stop offset="1" stop-color="#fff" stop-opacity="0"/>
    </linearGradient>
    <linearGradient id="linear-gradient-2" x1="0.22" y1="0.86" x2="0.703" y2="0.403" xlink:href="#linear-gradient"/>
    <linearGradient id="linear-gradient-3" y1="0.5" x2="1" y2="0.5" gradientUnits="objectBoundingBox">
      <stop offset="0" stop-color="#fe5858"/>
      <stop offset="1" stop-color="#ff9a44"/>
    </linearGradient>
    <linearGradient id="linear-gradient-4" x1="1" y1="0.5" x2="0" y2="0.5" xlink:href="#linear-gradient-3"/>
  </defs>
  <g id="Logo_gradient" transform="translate(0 18)">
    <g id="图层_4" data-name="图层 4">
      <rect id="矩形_14" data-name="矩形 14" width="214" height="160" transform="translate(0 -18)" fill="#fff" opacity="0"/>
      <path id="路径_184" data-name="路径 184" d="M175.89,59.44c6.22-9.68,8.92-21.43,8.92-34.11a51.7,51.7,0,0,0-1.33-11.649h0A77.61,77.61,0,0,0,142,2a79.19,79.19,0,0,0-32.57,6.89,141.7,141.7,0,0,1,66.46,50.55Z" fill="url(#linear-gradient)"/>
      <path id="路径_185" data-name="路径 185" d="M36.17,72.61c-10-15.08-16.29-48.31-5.67-58.93C13.21,24.6,2,42.18,2,62c0,33.14,31.34,60,70,60,11.77,0,22.86-1.22,32.6-5.63C63.7,104.91,47.34,89.42,36.17,72.61Z" fill="url(#linear-gradient-2)"/>
      <path id="路径_186" data-name="路径 186" d="M36.17,72.61C47.49,52.53,71.48,38.67,99.25,38.67c42.75,0,65.05,13.47,76.65,20.78C148.12,21,106,2,72,2A77.64,77.64,0,0,0,30.49,13.69C19.89,24.32,26.15,57.53,36.17,72.61Z" fill="url(#linear-gradient-3)"/>
      <path id="路径_187" data-name="路径 187" d="M183.48,13.68a51.7,51.7,0,0,1,1.33,11.65c0,33.14-18.48,60-69.84,60-43,0-67.16-5.28-78.8-12.72,11.17,16.81,27.52,32.3,68.41,43.76q2.42.63,4.8,1.2c12,2.85,23.44,4.43,32.62,4.43,38.66,0,70-26.86,70-60C212,42.17,200.78,24.6,183.48,13.68Z" fill="url(#linear-gradient-4)"/>
    </g>
  </g>
</svg>
