<svg xmlns="http://www.w3.org/2000/svg" xmlns:xlink="http://www.w3.org/1999/xlink" viewBox="0 0 840 124"><defs><style>.cls-1{fill:#fff;opacity:0;}.cls-2{fill:url(#未命名的渐变_465);}.cls-3{fill:url(#未命名的渐变_465-2);}.cls-4{fill:url(#未命名的渐变_453);}.cls-5{fill:url(#未命名的渐变_7);}.cls-6{fill:#fe794e;}</style><linearGradient id="未命名的渐变_465" x1="184.98" y1="40.64" x2="113.19" y2="-0.81" gradientUnits="userSpaceOnUse"><stop offset="0" stop-color="#ff9a44"/><stop offset="1" stop-color="#fff" stop-opacity="0"/></linearGradient><linearGradient id="未命名的渐变_465-2" x1="22.76" y1="106.79" x2="72.27" y2="57.28" xlink:href="#未命名的渐变_465"/><linearGradient id="未命名的渐变_453" x1="23.15" y1="37.31" x2="174.06" y2="37.31" gradientUnits="userSpaceOnUse"><stop offset="0" stop-color="#fe5858"/><stop offset="1" stop-color="#ff9a44"/></linearGradient><linearGradient id="未命名的渐变_7" x1="210.17" y1="67.84" x2="34.34" y2="67.84" xlink:href="#未命名的渐变_453"/></defs><g id="图层_2" data-name="图层 2"><g id="图层_4" data-name="图层 4"><rect class="cls-1" width="840" height="124"/><path class="cls-2" d="M174.06,59.44C180.27,49.76,183,38,183,25.33a52.28,52.28,0,0,0-1.33-11.65h0A77.62,77.62,0,0,0,140.16,2a79.19,79.19,0,0,0-32.57,6.89A141.78,141.78,0,0,1,174.06,59.44Z"/><path class="cls-3" d="M34.34,72.61c-10-15.08-16.29-48.31-5.67-58.93C11.38,24.6.17,42.18.17,62c0,33.14,31.34,60,70,60,11.77,0,22.86-1.22,32.6-5.63C61.86,104.91,45.51,89.42,34.34,72.61Z"/><path class="cls-4" d="M34.34,72.61C45.65,52.53,69.65,38.67,97.41,38.67c42.76,0,65.05,13.47,76.65,20.78C146.28,21,104.15,2,70.17,2A77.61,77.61,0,0,0,28.66,13.69C18.05,24.32,24.32,57.53,34.34,72.61Z"/><path class="cls-5" d="M181.65,13.68A52.28,52.28,0,0,1,183,25.33c0,33.14-18.48,60-69.85,60-43,0-67.16-5.28-78.79-12.72,11.16,16.81,27.52,32.3,68.41,43.76,1.6.42,3.2.82,4.79,1.2,12,2.85,23.44,4.43,32.62,4.43,38.66,0,70-26.86,70-60C210.17,42.17,198.94,24.6,181.65,13.68Z"/><path class="cls-6" d="M250.17,26.25h44.72v10.6H262.81v19h29v10.6h-29V96.07H250.17Z"/><path class="cls-6" d="M334.68,43.71H347V96.07h-9a3,3,0,0,1-3-3V90.76s-4,6-15.3,6c-10.29,0-18.45-7.13-18.45-19.71V43.71h12.34V75.14c0,6.64,4,10.84,9.89,10.84C329,86,334.68,82,334.68,74Z"/><path class="cls-6" d="M806.46,96.07H794.12V43.71h9a3,3,0,0,1,3,3V49s4-6,15.29-6c10.3,0,18.45,7.13,18.45,19.71V96.07H827.49V64.64c0-6.65-4-10.84-9.88-10.84-5.46,0-11.15,4-11.15,11.93Z"/><path class="cls-6" d="M424.57,43.71h12.34V96.07h-9a3,3,0,0,1-3-3V90.76s-4,6-15.3,6c-10.29,0-18.45-7.13-18.45-19.71V43.71h12.34V75.14c0,6.64,3.95,10.84,9.89,10.84,5.45,0,11.14-4,11.14-11.94Z"/><path class="cls-6" d="M383.72,53.25H373.39V80.32c0,5,2.49,6.06,5.59,6.06.37,0,.74,0,1.08,0a3,3,0,0,1,3.14,2.36l1.47,6.85a24.34,24.34,0,0,1-7.26,1.23c-9.27.27-16.43-4.57-16.36-14.42V53.25h-7.43V43.71h7.43V31.16h12.34V43.71h10.33Z"/><path class="cls-6" d="M448.1,43.71h9a3,3,0,0,1,3,3v1.72s4-5.47,13.47-5.47a29,29,0,0,1,4.43.34v7.77a3,3,0,0,1-3.28,3c-.82-.08-1.67-.14-2.45-.14-6.78,0-11.79,4.71-11.79,11.35V96.07H448.1Z"/><path class="cls-6" d="M588.69,61.16c0-22.57,13.73-35.86,32-35.86,15.48,0,27.41,9,29.56,24.51H637.47c-1.47-8.35-8.12-13.16-16.6-13.16s-15.23,4.93-18,14A14.58,14.58,0,0,1,589,61.16Z"/><path class="cls-6" d="M672.05,96.07H659.71V26.25h12.07V48.6S675.78,43,687,43c10.88,0,19,7.06,19,19.71V96.07H693.67V64.64c0-7.06-3.82-11.18-10.3-11.18s-11.32,4.36-11.32,11.93Z"/><path class="cls-6" d="M769.4,29.59a7.16,7.16,0,0,1,14.29,0,7.16,7.16,0,0,1-14.29,0Zm1,14.12H782.7V96.07H770.36Z"/><path class="cls-6" d="M506.61,43c-15,0-24.78,11-24.78,27.17,0,16.43,9.65,26.9,25.43,26.9,12.21,0,20.59-6,22.77-15.07H517.9c-1.94,3.58-5.7,5.46-10.47,5.46-8,0-13.26-5.25-13.36-14.22h36.47V69.48C530.54,51.1,519.5,43,506.61,43ZM494.1,64.94c.38-6.68,5.32-12.3,12.68-12.3,7.09,0,11.87,5.18,11.94,12.3Z"/><path class="cls-6" d="M566.72,66.2l-8.93-1.91c-5.32-1.19-7.43-3-7.4-6.06,0-3.55,3.89-6,9-6s7.92,2.4,9.21,5.32h11.68C578.62,48.68,571.53,43,559.26,43c-12.62,0-21.21,6.21-21.17,15.89,0,7.63,4.67,12.68,14.72,14.76l8.94,1.87c4.8,1.06,7,3,7,6,0,3.58-3.88,6.27-9.75,6.27-5.17,0-8.68-2-10.06-6H536.62c1.54,9.62,9.62,15.31,22.47,15.31,13.09,0,22.32-6.79,22.36-16.71C581.41,72.92,576.61,68.35,566.72,66.2Z"/><path class="cls-6" d="M738.18,43c-11,0-19.46,4.91-22.19,14.46h12.27c1.64-2.83,4.9-5,10-5,5.72,0,8.86,2.93,8.86,8.08v.2c0,3.54-3.72,3.72-13,4.7-10.16,1.09-19.88,4.13-19.88,15.92,0,10.3,7.54,15.75,17.52,15.75,11.79,0,15.79-5.25,15.79-5.25v1.2a3,3,0,0,0,3,3h8.86V61C759.45,47.18,748.17,43,738.18,43Zm9,34.26c0,5.83-4.7,10.77-12.13,10.77-5.15,0-8.83-2.35-8.83-6.88,0-4.74,4.12-6.72,9.65-7.5,3.24-.44,9.71-1.26,11.31-2.56Z"/><path class="cls-6" d="M637.47,72.89c-1.6,8.18-8.29,12.78-16.64,12.78-10.86,0-18.75-7.84-19.37-22.65h0a10.59,10.59,0,0,0-10,14.28C596.36,89.91,607.22,97,620.66,97c16.6,0,27.61-10.74,29.56-24.07Z"/></g></g></svg>