<svg id="Logo_white" xmlns="http://www.w3.org/2000/svg" xmlns:xlink="http://www.w3.org/1999/xlink" width="214" height="124" viewBox="0 0 214 124">
  <defs>
    <linearGradient id="linear-gradient" x1="0.228" y1="0.834" x2="0.656" y2="0.433" gradientUnits="objectBoundingBox">
      <stop offset="0" stop-color="#fff"/>
      <stop offset="1" stop-color="#fff" stop-opacity="0"/>
    </linearGradient>
    <linearGradient id="linear-gradient-2" x1="1.044" y1="0.683" x2="0.06" y2="-0.06" xlink:href="#linear-gradient"/>
  </defs>
  <g id="图层_4" data-name="图层 4">
    <rect id="矩形_18" data-name="矩形 18" width="214" height="124" fill="#fff" opacity="0"/>
    <path id="路径_197" data-name="路径 197" d="M70.26,122a98.14,98.14,0,0,0,23.22-2.32C55.35,107.23,40.27,91.11,29.84,75.41c-5.53-8.32-10-21.4-11.64-34.13a65.39,65.39,0,0,1,.05-18.82A60.78,60.78,0,0,0,7.83,35.28,51.89,51.89,0,0,0,.16,62.4C.16,95.26,31.61,122,70.26,122Z" fill="url(#linear-gradient)"/>
    <path id="路径_198" data-name="路径 198" d="M206.16,35.28a62.1,62.1,0,0,0-14.31-16.2q.21,2.42.21,4.83c0,24.78-10,66.36-76.7,66.36-31.81,0-55.91-2.72-71.94-8.11,10.89,12.43,28,24.52,61.93,34.05,1.66.43,3.31.85,4.93,1.23,12.35,2.94,24.23,4.56,33.46,4.56,38.65,0,70.1-26.74,70.1-59.6a51.81,51.81,0,0,0-7.68-27.12Z" fill="#fff"/>
    <path id="路径_199" data-name="路径 199" d="M165.39,47.2a146.6,146.6,0,0,0-39.72-30.59C107.66,7.19,88,2,70.26,2A77.9,77.9,0,0,0,28.84,13.53c-4,4.35-5.5,14.06-3.94,26.1a87.08,87.08,0,0,0,7.87,26.55C46.58,46,71.35,33.73,98.86,33.73,130.3,33.73,151.42,40.53,165.39,47.2Z" fill="#fff"/>
    <path id="路径_200" data-name="路径 200" d="M184.28,13.79a78.08,78.08,0,0,0-40.54-11,81.28,81.28,0,0,0-24.9,3.89,153.5,153.5,0,0,1,60.1,46.88c4.22-8.33,6.36-18.28,6.36-29.66a51,51,0,0,0-1.02-10.11Z" fill="url(#linear-gradient-2)"/>
  </g>
</svg>
